<svg width="772" height="772" viewBox="0 0 772 772" fill="none" xmlns="http://www.w3.org/2000/svg">
<circle cx="386" cy="386" r="289" fill="#FFCC00"/>
<rect x="371" width="30" height="61" rx="15" fill="#FFCC00"/>
<rect x="371" y="711" width="30" height="61" rx="15" fill="#FFCC00"/>
<rect x="772" y="371" width="30" height="61" rx="15" transform="rotate(90 772 371)" fill="#FFCC00"/>
<rect x="61" y="371" width="30" height="61" rx="15" transform="rotate(90 61 371)" fill="#FFCC00"/>
<rect x="102.535" y="123.578" width="29.7596" height="61.2698" rx="14.8798" transform="rotate(-45 102.535 123.578)" fill="#FFCC00"/>
<rect x="605.097" y="626.141" width="29.7596" height="61.2698" rx="14.8798" transform="rotate(-45 605.097 626.141)" fill="#FFCC00"/>
<rect x="648.421" y="102.535" width="29.7596" height="61.2698" rx="14.8798" transform="rotate(45 648.421 102.535)" fill="#FFCC00"/>
<rect x="145.859" y="605.098" width="29.7596" height="61.2698" rx="14.8798" transform="rotate(45 145.859 605.098)" fill="#FFCC00"/>
<rect x="371" width="30" height="61" rx="15" fill="#FFCC00"/>
<rect x="371" y="711" width="30" height="61" rx="15" fill="#FFCC00"/>
<rect x="772" y="371" width="30" height="61" rx="15" transform="rotate(90 772 371)" fill="#FFCC00"/>
<rect x="61" y="371" width="30" height="61" rx="15" transform="rotate(90 61 371)" fill="#FFCC00"/>
<rect x="27.7783" y="241.449" width="29.7596" height="61.2698" rx="14.8798" transform="rotate(-65.8173 27.7783 241.449)" fill="#FFCC00"/>
<rect x="676.138" y="532.6" width="29.7596" height="61.2698" rx="14.8798" transform="rotate(-65.8173 676.138 532.6)" fill="#FFCC00"/>
<rect x="530.55" y="27.7773" width="29.7596" height="61.2698" rx="14.8798" transform="rotate(24.1827 530.55 27.7773)" fill="#FFCC00"/>
<rect x="239.401" y="676.137" width="29.7596" height="61.2698" rx="14.8798" transform="rotate(24.1827 239.401 676.137)" fill="#FFCC00"/>
<rect x="39.6558" y="557.064" width="29.7596" height="61.2698" rx="14.8798" transform="rotate(-114.078 39.6558 557.064)" fill="#FFCC00"/>
<rect x="688.547" y="267.104" width="29.7596" height="61.2698" rx="14.8798" transform="rotate(-114.078 688.547 267.104)" fill="#FFCC00"/>
<rect x="214.936" y="39.6562" width="29.7596" height="61.2698" rx="14.8798" transform="rotate(-24.0778 214.936 39.6562)" fill="#FFCC00"/>
<rect x="504.897" y="688.547" width="29.7596" height="61.2698" rx="14.8798" transform="rotate(-24.0778 504.897 688.547)" fill="#FFCC00"/>
<rect x="102.535" y="123.578" width="29.7596" height="61.2698" rx="14.8798" transform="rotate(-45 102.535 123.578)" fill="#FFCC00"/>
<rect x="605.097" y="626.141" width="29.7596" height="61.2698" rx="14.8798" transform="rotate(-45 605.097 626.141)" fill="#FFCC00"/>
<rect x="648.421" y="102.535" width="29.7596" height="61.2698" rx="14.8798" transform="rotate(45 648.421 102.535)" fill="#FFCC00"/>
<rect x="145.859" y="605.098" width="29.7596" height="61.2698" rx="14.8798" transform="rotate(45 145.859 605.098)" fill="#FFCC00"/>
</svg>
