<svg width="910" height="910" viewBox="0 0 910 910" fill="none" xmlns="http://www.w3.org/2000/svg">
<path d="M744 455C744 614.61 614.61 744 455 744C295.39 744 166 614.61 166 455C166 295.39 295.39 166 455 166C614.61 166 744 295.39 744 455Z" fill="currentColor"/>
<path d="M890 429C901.046 429 910 437.954 910 449V461C910 472.046 901.046 481 890 481H824C812.954 481 804 472.046 804 461V449C804 437.954 812.954 429 824 429H890Z" fill="currentColor"/>
<path d="M86 429C97.0457 429 106 437.954 106 449V461C106 472.046 97.0457 481 86 481H20C8.9543 481 -4.82821e-07 472.046 0 461L5.24538e-07 449C1.00736e-06 437.954 8.95431 429 20 429H86Z" fill="currentColor"/>
<path d="M429 20C429 8.9543 437.954 0 449 0H461C472.046 0 481 8.95431 481 20V86C481 97.0457 472.046 106 461 106H449C437.954 106 429 97.0457 429 86V20Z" fill="currentColor"/>
<path d="M429 824C429 812.954 437.954 804 449 804H461C472.046 804 481 812.954 481 824V890C481 901.046 472.046 910 461 910H449C437.954 910 429 901.046 429 890V824Z" fill="currentColor"/>
<path d="M848.254 268.749C858.496 264.613 870.152 269.563 874.288 279.806L878.781 290.933C882.917 301.175 877.967 312.83 867.725 316.966L806.526 341.679C796.284 345.815 784.628 340.865 780.492 330.623L775.999 319.496C771.863 309.254 776.813 297.598 787.055 293.462L848.254 268.749Z" fill="currentColor"/>
<path d="M102.744 569.798C112.986 565.662 124.642 570.612 128.777 580.854L133.271 591.982C137.407 602.224 132.457 613.879 122.214 618.015L61.0159 642.728C50.7737 646.864 39.118 641.914 34.982 631.672L30.4888 620.545C26.3528 610.303 31.3029 598.647 41.545 594.511L102.744 569.798Z" fill="currentColor"/>
<path d="M268.489 60.545C264.353 50.3029 269.303 38.6472 279.545 34.5112L290.672 30.018C300.914 25.882 312.57 30.8321 316.706 41.0742L341.419 102.273C345.555 112.515 340.605 124.171 330.363 128.307L319.236 132.8C308.993 136.936 297.338 131.986 293.202 121.744L268.489 60.545Z" fill="currentColor"/>
<path d="M569.538 806.055C565.402 795.813 570.352 784.157 580.594 780.021L591.721 775.528C601.963 771.392 613.619 776.342 617.755 786.584L642.468 847.783C646.604 858.025 641.654 869.681 631.411 873.817L620.284 878.31C610.042 882.446 598.387 877.496 594.251 867.254L569.538 806.055Z" fill="currentColor"/>
<path d="M600.899 44.8135C605.217 34.6467 616.959 29.9051 627.125 34.2228L638.171 38.9136C648.337 43.2313 653.079 54.9734 648.761 65.1402L622.962 125.889C618.644 136.056 606.902 140.797 596.735 136.48L585.69 131.789C575.523 127.471 570.782 115.729 575.1 105.562L600.899 44.8135Z" fill="currentColor"/>
<path d="M286.617 784.843C290.935 774.676 302.677 769.934 312.844 774.252L323.889 778.943C334.056 783.26 338.798 795.002 334.48 805.169L308.681 865.918C304.363 876.085 292.621 880.826 282.454 876.509L271.409 871.818C261.242 867.5 256.5 855.758 260.818 845.591L286.617 784.843Z" fill="currentColor"/>
<path d="M44.4087 308.818C34.2418 304.5 29.5002 292.758 33.818 282.591L38.5087 271.546C42.8265 261.379 54.5685 256.638 64.7354 260.955L125.484 286.755C135.651 291.072 140.392 302.814 136.075 312.981L131.384 324.026C127.066 334.193 115.324 338.935 105.157 334.617L44.4087 308.818Z" fill="currentColor"/>
<path d="M784.438 623.1C774.271 618.782 769.529 607.04 773.847 596.873L778.538 585.828C782.856 575.661 794.598 570.919 804.764 575.237L865.513 601.036C875.68 605.354 880.422 617.096 876.104 627.263L871.413 638.308C867.095 648.475 855.353 653.217 845.186 648.899L784.438 623.1Z" fill="currentColor"/>
<path d="M744.325 128.675C752.135 120.864 764.799 120.864 772.609 128.675L781.095 137.16C788.905 144.971 788.905 157.634 781.095 165.445L734.426 212.114C726.615 219.924 713.952 219.924 706.141 212.114L697.656 203.628C689.846 195.818 689.846 183.155 697.656 175.344L744.325 128.675Z" fill="currentColor"/>
<path d="M175.811 697.189C183.622 689.378 196.285 689.378 204.095 697.189L212.581 705.674C220.391 713.485 220.391 726.148 212.581 733.958L165.912 780.627C158.101 788.438 145.438 788.438 137.627 780.627L129.142 772.142C121.332 764.332 121.332 751.668 129.142 743.858L175.811 697.189Z" fill="currentColor"/>
<path d="M744.325 128.675C752.135 120.864 764.799 120.864 772.609 128.675L781.095 137.16C788.905 144.971 788.905 157.634 781.095 165.445L734.426 212.114C726.615 219.924 713.952 219.924 706.141 212.114L697.656 203.628C689.846 195.818 689.846 183.155 697.656 175.344L744.325 128.675Z" fill="currentColor"/>
<path d="M175.811 697.189C183.622 689.378 196.285 689.378 204.095 697.189L212.581 705.674C220.391 713.485 220.391 726.148 212.581 733.958L165.912 780.627C158.101 788.438 145.438 788.438 137.627 780.627L129.142 772.142C121.332 764.332 121.332 751.668 129.142 743.858L175.811 697.189Z" fill="currentColor"/>
<path d="M129.142 166.142C121.332 158.332 121.332 145.668 129.142 137.858L137.627 129.373C145.438 121.562 158.101 121.562 165.912 129.373L212.581 176.042C220.391 183.852 220.391 196.515 212.581 204.326L204.095 212.811C196.285 220.622 183.622 220.622 175.811 212.811L129.142 166.142Z" fill="currentColor"/>
<path d="M697.656 734.656C689.846 726.846 689.846 714.182 697.656 706.372L706.141 697.886C713.952 690.076 726.615 690.076 734.426 697.886L781.095 744.555C788.905 752.366 788.905 765.029 781.095 772.84L772.609 781.325C764.799 789.135 752.135 789.135 744.325 781.325L697.656 734.656Z" fill="currentColor"/>
</svg>
